<svg width="500" height="500" viewBox="0 0 500 500" xmlns="http://www.w3.org/2000/svg">
  <defs>
    <pattern id="circuit" patternUnits="userSpaceOnUse" width="100" height="100">
      <!-- Horizontal Lines -->
      <line x1="0" y1="20" x2="100" y2="20" stroke="#00f3ff" stroke-width="0.5" opacity="0.3"/>
      <line x1="0" y1="60" x2="100" y2="60" stroke="#00f3ff" stroke-width="0.5" opacity="0.3"/>
      
      <!-- Vertical Lines -->
      <line x1="20" y1="0" x2="20" y2="100" stroke="#00f3ff" stroke-width="0.5" opacity="0.3"/>
      <line x1="80" y1="0" x2="80" y2="100" stroke="#00f3ff" stroke-width="0.5" opacity="0.3"/>
      
      <!-- Connection Points -->
      <circle cx="20" cy="20" r="3" fill="none" stroke="#00f3ff" stroke-width="0.7" opacity="0.5"/>
      <circle cx="80" cy="60" r="3" fill="none" stroke="#00f3ff" stroke-width="0.7" opacity="0.5"/>
      <circle cx="20" cy="60" r="1" fill="#00f3ff" opacity="0.7"/>
      <circle cx="80" cy="20" r="1" fill="#00f3ff" opacity="0.7"/>
      
      <!-- Circuit Elements -->
      <path d="M20,20 L50,20 L50,40 L80,40 L80,60" fill="none" stroke="#00f3ff" stroke-width="0.7" opacity="0.3"/>
      <path d="M20,60 L40,60 L40,80 L60,80 L60,60 L80,60" fill="none" stroke="#00f3ff" stroke-width="0.7" opacity="0.3"/>
      
      <!-- Small Connection Points -->
      <circle cx="50" cy="20" r="1.5" fill="#00f3ff" opacity="0.6"/>
      <circle cx="50" cy="40" r="1.5" fill="#00f3ff" opacity="0.6"/>
      <circle cx="80" cy="40" r="1.5" fill="#00f3ff" opacity="0.6"/>
      <circle cx="40" cy="60" r="1.5" fill="#00f3ff" opacity="0.6"/>
      <circle cx="40" cy="80" r="1.5" fill="#00f3ff" opacity="0.6"/>
      <circle cx="60" cy="80" r="1.5" fill="#00f3ff" opacity="0.6"/>
      <circle cx="60" cy="60" r="1.5" fill="#00f3ff" opacity="0.6"/>
    </pattern>
  </defs>
  <rect width="100%" height="100%" fill="url(#circuit)" />
</svg>
